<?xml version='1.0' encoding='utf-8'?>
<svg xmlns="http://www.w3.org/2000/svg" version="1.1" id="Layer_1" x="0px" y="0px" viewBox="0 600 3000 1800" enable-background="new 0 600 3000 1800"> <g> <rect y="600" fill="#E7FFC4" width="3000" height="1800"/> <rect x="195.1" y="2127.1" fill="#C49A6C" width="2609.9" height="66.7"/> <path fill="#828385" d="M2173.1,2127.1h-169.5v-31.7c0-28.6,23.2-51.7,51.7-51.7h66.2c28.6,0,51.7,23.2,51.7,51.7L2173.1,2127.1 L2173.1,2127.1z"/> <path fill="#9D9EA1" d="M2173.1,2127.1h-169.5v-3.7c0-28.6,23.2-51.7,51.7-51.7h66.2c28.6,0,51.7,23.2,51.7,51.7L2173.1,2127.1 L2173.1,2127.1z"/> <g> <rect x="1393.7" y="1738.9" fill="#747575" width="212.6" height="388.1"/> <rect x="812.5" y="1120.4" fill="#828385" width="1375.1" height="793.4"/> <rect x="855.7" y="1168.4" fill="#FAFDFF" width="1288.7" height="697.3"/> <path fill="#8A8B8C" d="M1761.6,2127.1h-525.4l0,0c0-29.9,24.2-54.2,54.2-54.2h417.1C1737.3,2072.9,1761.6,2097.2,1761.6,2127.1 L1761.6,2127.1z"/> <g> <path fill="#00AEEF" d="M1086.1,1449.2c47.3-40.9,118.8-38.9,163.7,6c13.3,13.3,22.8,28.9,28.6,45.5l81.9-22 c-9.5-30.5-26.5-59.3-50.6-83.5c-77.9-77.9-203.1-80-283.5-6.1L1086.1,1449.2z"/> <path fill="#39B54A" d="M1125.2,1653.9c-16.6-5.8-32.2-15.3-45.5-28.6c-44.9-44.9-46.9-116.4-6-163.7l-59.9-59.9 c-73.9,80.4-71.9,205.6,6.1,283.5c24.2,24.2,52.9,41,83.5,50.6L1125.2,1653.9z"/> <path fill="#ED373D" d="M1282.9,1517.7c7.2,37.8-3.8,78.4-33.1,107.6s-69.8,40.3-107.6,33.1l-22,81.9 c66.1,14.6,138.1-3.7,189.4-55.1c51.4-51.4,69.8-123.4,55.1-189.4L1282.9,1517.7z"/> </g> <rect x="1522.4" y="1589.3" fill="#009444" width="56.7" height="155.9"/> <rect x="1630.1" y="1541.2" fill="#D7DF23" width="56.7" height="204.1"/> <rect x="1737.8" y="1493" fill="#00AEEF" width="56.7" height="252.2"/> <rect x="1845.5" y="1493" fill="#2B3990" width="56.7" height="252.2"/> <rect x="1953.1" y="1434.9" fill="#ED1C24" width="56.7" height="310.3"/> <g> <polyline fill="none" stroke="#00EF7F" stroke-width="20" stroke-linecap="round" stroke-linejoin="round" stroke-miterlimit="10" points=" 1536.1,1512.1 1766.1,1404.1 1873.8,1404.1 1981.5,1353.1 "/> <polygon fill="#00EF7F" points="1973.5,1338.2 2005.9,1341.5 1986.8,1367.9 "/> </g> <g> <polyline fill="none" stroke="#EF4175" stroke-width="20" stroke-linecap="round" stroke-linejoin="round" stroke-miterlimit="10" points=" 1536.1,1463 1766.1,1354.9 1873.8,1354.9 1981.5,1303.9 "/> <polygon fill="#EF4175" points="1973.5,1289.1 2005.9,1292.4 1986.8,1318.8 "/> </g> <path fill="#CFD2D4" d="M1700.9,1209.1h-430.1c-4.1,0-7.4-3.4-7.4-7.4l0,0c0-4.1,3.4-7.4,7.4-7.4h430.1c4.1,0,7.4,3.4,7.4,7.4l0,0 C1708.4,1205.8,1705.1,1209.1,1700.9,1209.1z"/> <path fill="#CFD2D4" d="M1676.5,1239.7h-381.1c-4.1,0-7.4-3.4-7.4-7.4l0,0c0-4.1,3.4-7.4,7.4-7.4h381.1c4.1,0,7.4,3.4,7.4,7.4l0,0 C1683.9,1236.4,1680.5,1239.7,1676.5,1239.7z"/> <path fill="#CFD2D4" d="M1998.5,1812.7h-435.2c-2.7,0-4.9-2.2-4.9-4.9l0,0c0-2.7,2.2-4.9,4.9-4.9h435.2c2.7,0,4.9,2.2,4.9,4.9l0,0 C2003.4,1810.5,2001.2,1812.7,1998.5,1812.7z"/> <path fill="#CFD2D4" d="M1934.5,1840h-307.3c-2.7,0-4.9-2.2-4.9-4.9l0,0c0-2.7,2.2-4.9,4.9-4.9h307.3c2.7,0,4.9,2.2,4.9,4.9l0,0 C1939.4,1837.8,1937.2,1840,1934.5,1840z"/> </g> <g> <g> <g> <path fill="#D61920" d="M2693.4,1896.8c-13.3-11.3-28.2-17.9-28.8-18.2l-2.6-1.1h-109.7v194l20-10.9 c7.1-3.9,23.9-13.2,43.6-25.3c38.1-23.5,86.9-57.2,96.5-81.6C2716.9,1942.4,2720.4,1919.9,2693.4,1896.8z M2687.3,1943.8 c-5.2,13.2-36.7,37-71.3,59.4c-12.1,7.8-24.6,15.5-36.5,22.4v-121h76.7C2664.8,1909,2694.5,1925.5,2687.3,1943.8z"/> </g> <path fill="#FF1E27" d="M2615.9,1849.3v225.4c0,10.3-3,19.9-8.1,28c-9.2,14.6-25.6,24.4-44.3,24.4h-149.7 c-18.6,0-35-9.7-44.3-24.4c-5.2-8.1-8.1-17.7-8.1-28v-225.4c0-1,0.4-2,1.1-2.6c0.7-0.7,1.6-1.1,2.6-1.1h247 C2614.3,1845.5,2615.9,1847.2,2615.9,1849.3z"/> <path fill="#ED1C24" d="M2615.9,1849.3v225.4c0,10.3-3,19.9-8.1,28c-9.2,14.6-25.6,24.4-44.3,24.4h-106.4 c-18.6,0-35-9.7-44.3-24.4c-5.2-8.1-8.1-17.7-8.1-28v-229.1h207.4C2614.3,1845.5,2615.9,1847.2,2615.9,1849.3z"/> </g> <path opacity="0.2" fill="#0F0F0F" enable-background="new " d="M2460,1806.2c0,0-65.6-22.5-20.8-119 c44.8-96.5-15.7-166-15.7-166s111.2,59.2,36.5,188.9C2460,1710.1,2433.8,1741.9,2460,1806.2z"/> <path opacity="0.2" fill="#0F0F0F" enable-background="new " d="M2532.4,1806.2c0,0-64.7-16.4-20.5-86.5 c44.2-70.2-15.4-120.8-15.4-120.8s109.6,43.1,35.9,137.4C2532.4,1736.3,2506.6,1759.4,2532.4,1806.2z"/> <g> <g> <g> <g> <path fill="#E08231" d="M2482.3,2001.8c-6.2,0-13.4-6.2-18-15.5c-5.6-11.5-5-22.9,1.6-26c0.9-0.4,1.9-0.7,2.9-0.8 c0.2-0.1,0.5-0.1,0.7-0.1c0.3,0,0.5,0,0.8,0.1c0.3-0.4,0.6-0.8,0.9-1.3c0.7-0.7,1.5-1.4,2.4-1.8c1.1-0.5,2.3-0.8,3.6-0.8 c6.2,0,13.4,6.2,18,15.5c2.6,5.3,4,10.9,3.8,15.7c-0.2,5.2-2.1,8.8-5.3,10.4c-0.9,0.4-1.9,0.7-2.9,0.8 c-0.2,0.1-0.5,0.1-0.7,0.1c-0.3,0-0.5,0-0.8-0.1c-0.3,0.4-0.6,0.8-0.9,1.3c-0.7,0.7-1.5,1.4-2.4,1.8 C2484.8,2001.5,2483.6,2001.8,2482.3,2001.8L2482.3,2001.8z"/> <path fill="#FFFFFF" d="M2477.2,1957.1c5.4,0,12.3,5.8,16.6,14.6c5.2,10.5,4.8,21.2-0.8,24c-0.7,0.4-1.5,0.5-2.3,0.6 c-0.2,0.1-0.4,0.1-0.6,0.1c-0.5,0-1.1-0.1-1.7-0.2c-0.4,0.7-0.8,1.3-1.3,1.9c-0.5,0.6-1.2,1.1-1.9,1.4 c-0.9,0.4-1.9,0.7-2.9,0.7c-5.4,0-12.3-5.8-16.6-14.6c-5.2-10.5-4.8-21.2,0.8-24c0.7-0.4,1.5-0.5,2.3-0.6 c0.2-0.1,0.4-0.1,0.6-0.1c0.5,0,1.1,0.1,1.7,0.2c0.4-0.7,0.8-1.3,1.3-1.9c0.5-0.6,1.2-1.1,1.9-1.4 C2475.2,1957.4,2476.2,1957.1,2477.2,1957.1 M2477.2,1954L2477.2,1954c-1.5,0-2.9,0.4-4.3,1c-1.1,0.5-2,1.3-2.9,2.2 c-0.2,0.2-0.4,0.4-0.5,0.7c-0.1,0-0.1,0-0.1,0c-0.3,0-0.5,0-0.8,0.1c-1.2,0.1-2.4,0.4-3.4,0.9c-3.8,1.9-6,6.1-6.2,11.8 c-0.2,5,1.3,10.9,4,16.4c4.8,9.8,12.6,16.4,19.4,16.4c1.5,0,2.9-0.4,4.3-1c1.1-0.5,2-1.3,2.9-2.2c0.2-0.2,0.4-0.4,0.5-0.7 c0.1,0,0.1,0,0.1,0c0.3,0,0.5,0,0.8-0.1c1.2-0.1,2.4-0.4,3.5-0.9c3.8-1.9,6-6.1,6.2-11.8c0.2-5-1.3-10.9-4-16.4 C2491.7,1960.6,2484,1954,2477.2,1954L2477.2,1954z"/> </g> </g> <g> <path fill="#B06726" d="M2472.4,1959.3l18.2,37.1c-0.7,0.1-1.5,0-2.2-0.2c-0.4,0.7-0.8,1.3-1.3,1.9l-18.2-37.1 c0.7-0.1,1.5,0,2.2,0.2C2471.5,1960.4,2471.9,1959.8,2472.4,1959.3z"/> </g> </g> <g> <g> <g> <path fill="#E08231" d="M2504.3,1999.3c-1.4,0-2.6-0.4-3.7-1c-0.7-0.4-1.3-1-1.8-1.7c-0.2-0.3-0.4-0.5-0.5-0.8 c-0.4-0.1-0.7-0.1-1.1-0.1c-0.8-0.2-1.6-0.5-2.3-0.9c-4.9-3.1-4.5-12.2,0.8-20.8c4.1-6.5,9.9-10.7,14.7-10.7 c1.4,0,2.6,0.4,3.7,1c0.7,0.4,1.3,1,1.8,1.7c0.2,0.3,0.4,0.5,0.5,0.8c0.4,0.1,0.7,0.1,1.1,0.1c0.8,0.2,1.6,0.5,2.3,0.9 c2.5,1.6,3.7,4.7,3.4,8.8c-0.3,3.8-1.8,8-4.3,11.9C2514.9,1995.1,2509.1,1999.3,2504.3,1999.3z"/> <path fill="#FFFFFF" d="M2510.5,1964.8c1.1,0,2,0.2,2.9,0.8c0.5,0.4,1,0.8,1.4,1.3c0.4,0.5,0.6,1,0.8,1.6 c0.2-0.1,0.4-0.1,0.7-0.1c0.4,0,0.7,0.1,1.1,0.1c0.6,0.1,1.2,0.4,1.7,0.7c4.1,2.6,3.5,10.9-1.3,18.6c-3.9,6.1-9.2,10-13.4,10 c-1.1,0-2-0.2-2.9-0.8c-0.5-0.4-1-0.8-1.4-1.3c-0.4-0.5-0.6-1-0.8-1.6c-0.2,0.1-0.4,0.1-0.7,0.1c-0.4,0-0.7-0.1-1.1-0.1 c-0.6-0.1-1.2-0.4-1.7-0.7c-4.1-2.6-3.5-10.9,1.3-18.6C2501,1968.6,2506.4,1964.8,2510.5,1964.8 M2510.5,1961.6 c-5.3,0-11.6,4.5-16,11.5c-2.6,4.1-4.2,8.6-4.5,12.7c-0.4,4.7,1.1,8.3,4.1,10.2c0.8,0.5,1.8,0.9,2.8,1.1 c0.1,0.1,0.2,0.1,0.4,0.1c0.1,0.1,0.2,0.2,0.2,0.4c0.6,0.8,1.4,1.6,2.2,2.1c1.3,0.8,2.8,1.3,4.5,1.3c5.3,0,11.6-4.5,16-11.5 c2.6-4.1,4.2-8.6,4.5-12.7c0.4-4.7-1.1-8.3-4.1-10.2c-0.8-0.5-1.8-0.9-2.9-1.1c-0.1-0.1-0.2-0.1-0.4-0.1 c-0.1-0.1-0.2-0.2-0.2-0.4c-0.6-0.8-1.4-1.6-2.2-2.1C2513.7,1962.1,2512.2,1961.6,2510.5,1961.6L2510.5,1961.6z"/> </g> </g> <g> <path fill="#B06726" d="M2517.3,1968.5l-17.2,27.2c-0.4-0.5-0.6-1-0.8-1.6c-0.6,0.1-1.2,0.1-1.7-0.1l17.2-27.2 c0.4,0.5,0.6,1,0.8,1.6C2516.2,1968.3,2516.7,1968.3,2517.3,1968.5z"/> </g> </g> </g> <path opacity="0.5" fill="#FFFFFF" enable-background="new " d="M2615.9,1849.3v3.6h-254.5v-3.6c0-1,0.4-2,1.1-2.6 c0.7-0.7,1.6-1.1,2.6-1.1h247C2614.3,1845.5,2615.9,1847.2,2615.9,1849.3z"/> <path opacity="0.1" fill="#231F20" enable-background="new " d="M2607.8,2102.7c-9.2,14.6-25.6,24.4-44.3,24.4h-149.7 c-18.6,0-35-9.7-44.3-24.4H2607.8z"/> </g> <g> <g> <rect x="411.6" y="1656.2" transform="matrix(-0.9865 0.164 -0.164 -0.9865 1128.9498 3430.6763)" fill="#ED4249" width="22.6" height="211.6"/> <rect x="393.5" y="1638.1" transform="matrix(-0.9865 0.164 -0.164 -0.9865 1091.1456 3280.3545)" fill="#A82F34" width="33.4" height="94.1"/> </g> <g> <rect x="482.1" y="1665.8" transform="matrix(-0.9939 -0.1101 0.1101 -0.9939 788.7253 3586.7703)" fill="#42ED96" width="22.6" height="211.6"/> <rect x="485.2" y="1647.3" transform="matrix(-0.9939 -0.1101 0.1101 -0.9939 814.2802 3433.6841)" fill="#2FA86A" width="33.4" height="94.1"/> </g> <g> <rect x="541.1" y="1665.6" transform="matrix(-0.9599 -0.2805 0.2805 -0.9599 585.8096 3626.5867)" fill="#ED42A0" width="22.6" height="211.6"/> <rect x="557.5" y="1649.7" transform="matrix(-0.9599 -0.2805 0.2805 -0.9599 649.4827 3486.4775)" fill="#A82F71" width="33.4" height="94.1"/> </g> <path fill="#81CDE6" d="M584.4,1799.8v284.7c0,23-18.7,41.8-41.7,41.8H416.4c-2.2,0-4.3-0.2-6.4-0.5c-20-3.1-35.3-20.4-35.3-41.2 v-284.7L584.4,1799.8L584.4,1799.8z"/> <path fill="#7BC0DB" d="M584.4,1799.8v284.7c0,23-18.7,41.8-41.7,41.8H410v-326.4L584.4,1799.8L584.4,1799.8z"/> </g> <g> <g> <circle fill="#BCBEC0" cx="389.5" cy="976.6" r="299"/> </g> <g> <circle fill="#FFFFFF" cx="389.5" cy="976.6" r="267.7"/> </g> <g> <g> <path fill="#919294" d="M389.5,753.2c-2.5,0-4.4-2-4.4-4.4v-24.9c0-2.5,2-4.4,4.4-4.4c2.5,0,4.4,2,4.4,4.4v24.9 C393.9,751.2,391.9,753.2,389.5,753.2z"/> </g> <g> <path fill="#919294" d="M275.5,783.7c-1.6,0-3.1-0.8-3.8-2.2L259.2,760c-1.3-2.2-0.5-4.9,1.6-6.1c2.2-1.3,4.9-0.5,6.1,1.6 l12.4,21.5c1.3,2.2,0.5,4.9-1.6,6.1C277,783.5,276.2,783.7,275.5,783.7z"/> </g> <g> <path fill="#919294" d="M192.1,867.1c-0.8,0-1.5-0.2-2.2-0.6l-21.5-12.4c-2.2-1.3-2.9-4-1.6-6.1c1.3-2.2,4-2.9,6.1-1.6 l21.5,12.4c2.2,1.3,2.9,4,1.6,6.1C195.1,866.3,193.6,867.1,192.1,867.1z"/> </g> <g> <path fill="#919294" d="M161.5,981.1h-24.9c-2.5,0-4.4-2-4.4-4.4c0-2.5,2-4.4,4.4-4.4h24.9c2.5,0,4.4,2,4.4,4.4 C166,979.1,164,981.1,161.5,981.1z"/> </g> <g> <path fill="#919294" d="M170.5,1107.5c-1.6,0-3.1-0.8-3.8-2.2c-1.3-2.2-0.5-4.9,1.6-6.1l21.5-12.4c2.2-1.3,4.9-0.5,6.1,1.6 c1.3,2.2,0.5,4.9-1.6,6.1l-21.5,12.4C172.1,1107.3,171.3,1107.5,170.5,1107.5z"/> </g> <g> <path fill="#919294" d="M263,1200c-0.8,0-1.5-0.2-2.2-0.6c-2.2-1.3-2.9-4-1.6-6.1l12.4-21.5c1.3-2.2,4-2.9,6.1-1.6 c2.2,1.3,2.9,4,1.6,6.1l-12.4,21.5C266.1,1199.2,264.6,1200,263,1200z"/> </g> <g> <path fill="#919294" d="M389.5,1233.8c-2.5,0-4.4-2-4.4-4.4v-24.9c0-2.5,2-4.4,4.4-4.4c2.5,0,4.4,2,4.4,4.4v24.9 C393.9,1231.9,391.9,1233.8,389.5,1233.8z"/> </g> <g> <path fill="#919294" d="M515.8,1200c-1.6,0-3.1-0.8-3.8-2.2l-12.4-21.5c-1.3-2.2-0.5-4.9,1.6-6.1c2.2-1.3,4.9-0.5,6.1,1.6 l12.4,21.5c1.3,2.2,0.5,4.9-1.6,6.1C517.4,1199.8,516.6,1200,515.8,1200z"/> </g> <g> <path fill="#919294" d="M608.3,1107.5c-0.8,0-1.5-0.2-2.2-0.6l-21.5-12.4c-2.2-1.3-2.9-4-1.6-6.1c1.3-2.2,4-2.9,6.1-1.6 l21.5,12.4c2.2,1.3,2.9,4,1.6,6.1C611.4,1106.7,609.9,1107.5,608.3,1107.5z"/> </g> <g> <path fill="#919294" d="M642.2,981.1h-24.9c-2.5,0-4.4-2-4.4-4.4c0-2.5,2-4.4,4.4-4.4h24.9c2.5,0,4.4,2,4.4,4.4 C646.7,979.1,644.7,981.1,642.2,981.1z"/> </g> <g> <path fill="#919294" d="M586.8,867.1c-1.6,0-3.1-0.8-3.8-2.2c-1.3-2.2-0.5-4.9,1.6-6.1l21.5-12.4c2.2-1.3,4.9-0.5,6.1,1.6 c1.3,2.2,0.5,4.9-1.6,6.1l-21.5,12.4C588.4,866.9,587.6,867.1,586.8,867.1z"/> </g> <g> <path fill="#919294" d="M503.4,783.7c-0.8,0-1.5-0.2-2.2-0.6c-2.2-1.3-2.9-4-1.6-6.1l12.4-21.5c1.3-2.2,4-2.9,6.1-1.6 c2.2,1.3,2.9,4,1.6,6.1l-12.4,21.5C506.4,782.9,504.9,783.7,503.4,783.7z"/> </g> </g> <g> <g> <path fill="#E07272" d="M393.2,980.3H269.3c-2,0-3.7-1.7-3.7-3.7c0-2,1.7-3.7,3.7-3.7h116.5V785.8c0-2,1.7-3.7,3.7-3.7 c2,0,3.7,1.7,3.7,3.7L393.2,980.3L393.2,980.3z"/> </g> <g> <circle fill="#E07272" cx="389.5" cy="976.6" r="12"/> </g> </g> </g> <g> <path fill="#DBF2BA" d="M2827.6,1241.8h-439.7c-42.3,0-76.6-34.3-76.6-76.6l0,0c0-10.7,8.7-19.4,19.4-19.4h554.1 c10.7,0,19.4,8.7,19.4,19.4l0,0C2904.2,1207.5,2869.9,1241.8,2827.6,1241.8z"/> <path fill="#95AB74" d="M2884.9,1184.6h-554.1c-10.7,0-19.4-8.7-19.4-19.4l0,0c0-10.7,8.7-19.4,19.4-19.4h554.1 c10.7,0,19.4,8.7,19.4,19.4l0,0C2904.2,1175.9,2895.5,1184.6,2884.9,1184.6z"/> <rect x="2408" y="717.6" fill="#57B6FF" width="91.3" height="427.7"/> <rect x="2408" y="717.6" fill="#57B6FF" width="91.3" height="427.7"/> <rect x="2499.4" y="717.6" fill="#FF5D57" width="91.3" height="427.7"/> <rect x="2590.7" y="717.6" fill="#65FF57" width="91.3" height="427.7"/> <polygon fill="#E8E04F" points="2871.1,1125.9 2801.5,1142.7 2782.3,1147.3 2682.1,731.5 2701.4,726.9 2770.9,710.1 "/> <polygon fill="#DED64C" points="2871.1,1125.9 2801.5,1142.7 2701.4,726.9 2770.9,710.1 "/> <rect x="2427" y="717.6" fill="#4EA4E6" width="72.4" height="427.7"/> <rect x="2518.3" y="717.6" fill="#E6544E" width="72.4" height="427.7"/> <rect x="2609.7" y="717.6" fill="#5BE64E" width="72.4" height="427.7"/> </g> </g> </svg>